
<svg version="1.1" id="Layer_1" xmlns="http://www.w3.org/2000/svg" xmlns:xlink="http://www.w3.org/1999/xlink" x="0px" y="0px"
	 viewBox="0 380 1800 1050" xml:space="preserve">
<g>
	<path d="M1040.6,595.8H759c-23.7,0-42.9,19.2-42.9,42.9v527.6c0,23.7,19.2,42.9,42.9,42.9h281.7c23.6,0,42.9-19.3,42.9-42.9V638.7
		C1083.6,615,1064.3,595.8,1040.6,595.8z"/>
	<polygon points="934.4,1276.7 937.3,1277.3 937,1276.7 	"/>
	<polygon points="859.2,1277.3 862.1,1276.7 859.5,1276.7 	"/>
	<path d="M1394.7,1013.6l120,251.5c65.7,11.9,125.8,25.7,179.3,41l-115.8-242.7l68.6,11.4l-97.2-177.2l68.6,11.4L1481,663.3
		l-93.6,167.7l109.5,199.6L1394.7,1013.6z"/>
	<path d="M296.5,1030.6L409,825.5l-90.5-162.2L181.3,909.1l68.6-11.4l-97.2,177.2l68.6-11.4l-116,243.1
		c51.6-14.8,109.5-28.2,172.6-39.8l120.8-253.1L296.5,1030.6z"/>
	<path d="M453.3,723l93.7-15.6l-132.7,242l93.7-15.6l-152.7,319.9c79.7-12.2,166.2-21.7,257.7-28.2c-9,0.7-18,1.3-26.9,2v125.7
		c0,13.1,11.1,23.4,24.2,22.5c19.2-1.4,38.6-2.6,58.2-3.7c15.1-0.8,27-13.3,27-28.4v-68.1c-26.2-5.1-46.8-25.8-51.9-52.1
		c-0.8-4.1-1.2-8.3-1.2-12.5V582c0-36.4,29.5-65.9,65.9-65.9h4.5l-71.9-128.8L453.3,723z"/>
	<path d="M1382.3,949.4l-132.7-242l93.7,15.6l-187.4-335.7L1084,516.1h7.6c36.4,0,65.9,29.5,65.9,65.9v628.9c0,4.3-0.4,8.4-1.2,12.4
		c-5.2,27.3-27.3,48.6-55,52.7v67.8c0,15.1,11.8,27.5,26.9,28.4c19.6,1.1,39,2.3,58.2,3.7c13.1,0.9,24.2-9.4,24.2-22.5v-126.3
		c81.4,6.3,158.6,15,230.4,25.8l-152.3-319.2L1382.3,949.4z"/>
	<path d="M1441,1379.5c0,13.9,10.1,25.8,23.8,28c10.1,1.6,20,3.3,29.9,5c13.8,2.4,26.3-8.2,26.3-22.2v-62l-80-15.5V1379.5z"/>
	<path d="M278.5,1389.2c0,14,12.6,24.6,26.4,22.3c9.8-1.7,19.7-3.3,29.7-4.9c13.8-2.2,23.9-14.1,23.9-28.1v-66.7l-80,15.5V1389.2z"
		/>
</g>
</svg>
