<?xml version="1.0" standalone="no"?>
<!DOCTYPE svg PUBLIC "-//W3C//DTD SVG 20010904//EN"
 "http://www.w3.org/TR/2001/REC-SVG-20010904/DTD/svg10.dtd">
<svg version="1.0" xmlns="http://www.w3.org/2000/svg"
 width="1000.000000pt" height="1000.000000pt" viewBox="0 0 1000.000000 1000.000000"
 preserveAspectRatio="xMidYMid meet">
<metadata>
Created by potrace 1.11, written by Peter Selinger 2001-2013
</metadata>
<g transform="translate(0.000000,1000.000000) scale(0.100000,-0.100000)"
fill="#000000" stroke="none">
<path d="M3032 7028 c-286 -513 -519 -934 -517 -936 1 -1 113 16 249 39 136
22 250 39 252 36 4 -4 -608 -1132 -704 -1299 -9 -15 -14 -29 -11 -32 2 -2 118
15 257 39 155 25 251 38 249 31 -3 -6 -192 -404 -422 -884 -229 -481 -415
-875 -413 -877 2 -2 78 7 168 20 277 40 798 97 1068 117 l42 4 0 -359 c0 -408
0 -411 73 -446 41 -19 49 -19 232 -6 105 7 201 17 215 23 36 14 79 63 90 103
15 53 13 429 -2 429 -30 0 -140 62 -178 100 -23 23 -56 72 -73 108 l-32 67 -3
1799 c-3 1987 -6 1866 60 1969 17 27 54 67 80 88 52 41 155 79 214 79 19 0 34
3 34 7 0 11 -394 713 -401 713 -3 0 -240 -420 -527 -932z"/>
<path d="M6218 7606 c-109 -195 -198 -357 -198 -360 0 -3 19 -6 43 -6 64 0
145 -27 204 -67 87 -58 136 -139 153 -250 7 -46 10 -636 8 -1838 l-3 -1770
-24 -60 c-33 -83 -125 -174 -204 -203 -32 -12 -64 -22 -72 -22 -13 0 -15 -31
-15 -197 0 -109 5 -214 10 -235 6 -21 27 -51 49 -71 45 -41 49 -41 289 -57
146 -9 166 -9 199 6 73 35 73 34 73 447 l0 368 48 -6 c26 -3 148 -14 272 -25
262 -24 491 -50 749 -86 101 -14 190 -24 197 -22 9 2 -124 291 -406 882 -231
484 -420 880 -420 881 0 2 422 -68 483 -79 15 -3 27 -2 27 3 0 5 -162 304
-361 666 -198 361 -358 659 -355 662 2 3 116 -14 252 -36 136 -23 248 -40 250
-39 4 5 -1034 1862 -1043 1865 -4 2 -97 -156 -205 -351z"/>
<path d="M4163 6801 c-88 -22 -161 -95 -183 -183 -7 -30 -10 -506 -8 -1548 l3
-1505 22 -41 c28 -53 91 -107 142 -122 28 -9 267 -12 867 -12 l829 0 50 24
c54 25 100 71 122 123 11 27 13 301 13 1558 0 1684 5 1563 -63 1633 -18 19
-50 43 -72 55 l-40 22 -825 2 c-454 1 -839 -2 -857 -6z"/>
<path d="M1384 5747 c-335 -600 -379 -682 -360 -685 12 -1 96 11 188 26 l166
29 -28 -51 c-16 -28 -136 -248 -268 -488 -208 -380 -237 -438 -219 -438 12 0
97 13 189 28 l167 29 -14 -31 c-7 -17 -151 -319 -319 -670 -168 -352 -304
-641 -303 -643 2 -2 118 26 258 61 140 36 355 85 478 110 123 25 226 48 228
50 3 3 155 319 338 703 305 639 332 698 312 701 -12 1 -138 -17 -279 -41 -142
-24 -258 -43 -258 -42 0 1 137 252 305 557 167 306 306 560 307 566 3 12 -493
911 -502 912 -3 0 -176 -307 -386 -683z"/>
<path d="M7965 5968 c-142 -255 -258 -468 -258 -474 0 -5 133 -254 296 -551
164 -297 297 -543 297 -545 0 -3 -116 15 -257 39 -142 24 -267 42 -278 41 -18
-3 17 -82 310 -697 182 -381 338 -697 346 -701 8 -4 57 -15 109 -24 156 -28
533 -113 714 -161 93 -25 170 -44 171 -43 2 2 -140 302 -315 668 -246 516
-314 666 -301 668 9 1 91 -11 184 -26 92 -16 167 -25 167 -21 0 5 -112 213
-249 463 -137 249 -256 467 -265 483 l-15 29 180 -29 c98 -17 182 -28 185 -24
6 5 -728 1330 -751 1355 -9 10 -67 -87 -270 -450z"/>
<path d="M1780 2789 c-107 -21 -205 -41 -217 -44 -23 -5 -23 -7 -23 -194 0
-179 1 -190 23 -222 12 -19 39 -42 60 -52 35 -18 41 -18 144 -1 128 20 173 40
204 91 23 36 24 48 27 251 3 171 1 212 -10 211 -7 -1 -101 -19 -208 -40z"/>
<path d="M8000 2619 c0 -185 2 -207 21 -245 27 -58 66 -79 174 -98 152 -27
201 -18 241 41 17 25 19 48 19 223 l0 195 -185 36 c-102 21 -204 40 -227 44
l-43 6 0 -202z"/>
</g>
</svg>
